<svg width="234" height="45" viewBox="0 0 234 45" fill="none" xmlns="http://www.w3.org/2000/svg">
<path d="M86.3663 20.805C84.3068 18.0266 82.096 14.0921 83.2368 11.1415C84.4261 8.07443 88.9727 6.56029 90.6311 6.23415L89.4237 0.00555252C89.0449 0.0791078 80.042 1.85553 77.3079 8.81275C76.7889 10.1256 76.5224 11.5232 76.5224 12.9332C76.5224 16.3154 77.9422 20.0278 80.8011 24.029C82.8551 26.8019 85.0798 30.7419 83.9307 33.6855C82.7358 36.7526 78.1948 38.2737 76.5363 38.5929L77.7437 44.8326C78.1226 44.7591 87.1255 42.9757 89.8595 36.0185C90.3744 34.7056 90.6367 33.308 90.6325 31.898C90.6395 28.5186 89.2058 24.7978 86.3663 20.805ZM35.82 0C24.9852 0 24.3926 17.4354 24.3981 21.542V23.2809C24.3981 27.3931 24.9852 44.8229 35.82 44.8229C46.6548 44.8229 47.2488 27.3931 47.2419 23.2809V21.542C47.2544 17.4354 46.6465 0 35.82 0ZM35.9657 38.3264H35.6604C34.8346 38.3264 30.9279 38.3126 30.9279 22.4232C30.9279 6.53393 34.8416 6.49506 35.6604 6.49506H35.9657C36.804 6.49506 40.6982 6.53531 40.6982 22.4232C40.6982 38.3112 36.8095 38.3264 35.9713 38.3264H35.9657ZM119.552 13.1678C115.117 13.1678 114.878 20.2943 114.885 21.975V22.6842C114.885 24.369 115.115 31.4983 119.552 31.4983C123.988 31.4983 124.229 24.3662 124.229 22.68V21.9708C124.229 20.2915 123.975 13.1678 119.552 13.1678ZM119.612 29.1806H119.497C119.153 29.1806 117.555 28.8392 117.555 22.3372C117.555 15.8352 119.153 15.4979 119.497 15.4979H119.622C119.964 15.4979 121.556 15.8421 121.556 22.3372C121.556 28.8323 119.955 29.1765 119.612 29.1765V29.1806ZM65.1214 0.820211V35.0983C65.1214 35.9602 64.7786 36.7859 64.1679 37.3952C63.5573 38.0045 62.7287 38.3473 61.8641 38.3473C60.9995 38.3473 60.171 38.0045 59.5603 37.3952C58.9497 36.7859 58.6055 35.9602 58.6055 35.0983V22.8091V13.6355V0.820211H52.1007V35.0928C52.1007 37.6769 53.1305 40.1542 54.9624 41.9806C56.7944 43.807 59.28 44.834 61.871 44.834C64.4621 44.834 66.9478 43.8084 68.7797 41.9806C70.6116 40.1542 71.6414 37.6769 71.6414 35.0928V0.820211H65.1214ZM132.205 15.9199V13.1678H126.666V31.5108H129.432V22.3372H132.205V19.5726H129.432V15.9212H132.205V15.9199ZM108.556 7.31667V0.820211H95.5247V44.0041H108.556V37.5146H102.041V22.4149H108.556V15.9185H102.041V7.31528H108.556V7.31667ZM203.058 0.814663H196.548H190.032V7.31667H196.548V44.0041H203.064V7.31667H209.58V0.814663H203.058ZM13.0318 0.828537V15.9282H6.51588V0.828537H0V44.0124H6.51588V22.4163H13.0318V44.0124H19.5477V0.828537H13.0318ZM227.492 0.828537V15.9282H220.968V0.828537H214.452V44.0124H220.968V22.4163H227.484V44.0124H234V0.828537H227.492ZM185.613 28.8337L183.208 15.2218L180.681 0.827153H174.738L167.133 44.011H173.733L174.774 37.5159H180.624L181.666 44.0124H188.261L185.613 28.8337ZM175.828 31.0167L176.172 28.8337L177.696 19.3686L179.222 28.8337L179.577 31.0167H175.828ZM157.738 0.828537H154.477L150.791 20.304L147.087 0.828537H143.832L136.881 44.0124H143.397L146.096 28.9003L148.824 44.0124H152.713L155.439 28.9003L158.178 44.0124H164.694L157.738 0.828537ZM113.496 10.3977H133.586V11.7786H113.496V10.3977ZM113.496 32.8889H133.586V34.2726H113.496V32.8889Z" fill="url(#paint0_linear)"/>
<defs>
<linearGradient id="paint0_linear" x1="234.001" y1="22.4172" x2="-0.000278951" y2="22.4172" gradientUnits="userSpaceOnUse">
<stop offset="0.0293" stop-color="#467AFF"/>
<stop offset="0.5935" stop-color="#FB0D98"/>
<stop offset="0.9742" stop-color="#FF9B05"/>
</linearGradient>
</defs>
</svg>
