<?xml version="1.0" encoding="utf-8"?>
<!-- Generator: Adobe Illustrator 24.3.0, SVG Export Plug-In . SVG Version: 6.00 Build 0)  -->
<svg version="1.1" id="Layer_1" xmlns="http://www.w3.org/2000/svg" xmlns:xlink="http://www.w3.org/1999/xlink" x="0px" y="0px"
	 viewBox="0 0 200 35.46" style="enable-background:new 0 0 200 35.46;" xml:space="preserve">
<style type="text/css">
	.st0{clip-path:url(#SVGID_2_);}
	.st1{fill:url(#SVGID_3_);}
	.st2{fill:#007DB5;}
</style>
<g>
	<defs>
		<rect id="SVGID_1_" x="0" width="200" height="35.46"/>
	</defs>
	<clipPath id="SVGID_2_">
		<use xlink:href="#SVGID_1_"  style="overflow:visible;"/>
	</clipPath>
	<g class="st0">
		<g>
			<g>
				<linearGradient id="SVGID_3_" gradientUnits="userSpaceOnUse" x1="0.3546" y1="17.1945" x2="40.6098" y2="17.1945">
					<stop  offset="0" style="stop-color:#37B7E5"/>
					<stop  offset="0.4698" style="stop-color:#007DB5"/>
					<stop  offset="1" style="stop-color:#0D4C7F"/>
				</linearGradient>
				<path class="st1" d="M17.22,21.9l-8.43,8.44l-8.44-8.43l8.43-8.44L17.22,21.9z M32.17,13.53l8.44,8.43l-8.42,8.44l-8.44-8.42
					L32.17,13.53z M24.2,5.55c-2.07-2.07-5.43-2.07-7.5,0l-4.68,4.69l8.44,8.43l8.43-8.44L24.2,5.55z"/>
			</g>
		</g>
		<g>
			<path class="st2" d="M58.82,8.49h9.44v3.74h-9.44v11.5c0,1.25,0.1,2.28,0.29,3.09c0.19,0.81,0.48,1.45,0.86,1.92
				c0.38,0.46,0.86,0.79,1.44,0.98c0.57,0.19,1.25,0.29,2.01,0.29c1.34,0,2.42-0.15,3.23-0.46c0.81-0.3,1.38-0.52,1.7-0.65
				l0.86,3.69c-0.45,0.22-1.23,0.5-2.35,0.84c-1.12,0.34-2.4,0.5-3.83,0.5c-1.69,0-3.09-0.22-4.19-0.65
				c-1.1-0.43-1.99-1.08-2.66-1.94c-0.67-0.86-1.14-1.92-1.41-3.19c-0.27-1.26-0.41-2.72-0.41-4.38V1.55l4.46-0.77V8.49z"/>
			<path class="st2" d="M81.48,7.87c1.79,0,3.3,0.23,4.53,0.69c1.23,0.46,2.22,1.12,2.97,1.96c0.75,0.85,1.29,1.85,1.6,3.02
				c0.32,1.17,0.48,2.45,0.48,3.86v15.57c-0.38,0.06-0.92,0.15-1.6,0.26c-0.69,0.11-1.46,0.22-2.32,0.31
				c-0.86,0.1-1.8,0.18-2.8,0.26c-1.01,0.08-2,0.12-2.99,0.12c-1.41,0-2.7-0.14-3.88-0.43c-1.18-0.29-2.2-0.74-3.07-1.37
				c-0.86-0.62-1.53-1.44-2.01-2.47c-0.48-1.02-0.72-2.25-0.72-3.69c0-1.37,0.28-2.55,0.84-3.54c0.56-0.99,1.32-1.79,2.28-2.4
				c0.96-0.61,2.08-1.05,3.35-1.34c1.28-0.29,2.62-0.43,4.02-0.43c0.45,0,0.91,0.02,1.39,0.07c0.48,0.05,0.93,0.11,1.37,0.19
				c0.43,0.08,0.81,0.15,1.13,0.22c0.32,0.06,0.54,0.11,0.67,0.14v-1.25c0-0.73-0.08-1.46-0.24-2.18c-0.16-0.72-0.45-1.36-0.86-1.92
				c-0.42-0.56-0.98-1.01-1.7-1.34c-0.72-0.34-1.65-0.5-2.8-0.5c-1.47,0-2.75,0.1-3.86,0.31c-1.1,0.21-1.92,0.42-2.47,0.65
				l-0.53-3.69c0.57-0.26,1.53-0.5,2.87-0.74C78.46,7.99,79.91,7.87,81.48,7.87z M81.86,30.2c1.05,0,1.99-0.02,2.8-0.07
				c0.81-0.05,1.49-0.14,2.04-0.26v-7.43c-0.32-0.16-0.84-0.29-1.56-0.41c-0.72-0.11-1.59-0.17-2.61-0.17
				c-0.67,0-1.38,0.05-2.13,0.14c-0.75,0.1-1.44,0.3-2.06,0.6c-0.62,0.3-1.14,0.72-1.56,1.25c-0.42,0.53-0.62,1.22-0.62,2.08
				c0,1.6,0.51,2.71,1.53,3.33C78.72,29.88,80.1,30.2,81.86,30.2z"/>
			<path class="st2" d="M112.85,33.93c-0.35-0.7-0.78-1.48-1.29-2.35c-0.51-0.86-1.07-1.75-1.68-2.66
				c-0.61-0.91-1.23-1.81-1.87-2.71c-0.64-0.89-1.26-1.74-1.87-2.54c-0.61,0.8-1.23,1.65-1.87,2.56c-0.64,0.91-1.25,1.82-1.84,2.73
				c-0.59,0.91-1.14,1.8-1.65,2.66c-0.51,0.86-0.94,1.63-1.29,2.3h-4.6c1.12-2.17,2.45-4.38,4-6.63c1.55-2.25,3.09-4.4,4.62-6.44
				L95.27,9.02h5.03l5.94,8.72l5.99-8.72h4.74l-8.05,11.54c1.53,2.08,3.11,4.27,4.72,6.59c1.61,2.32,2.98,4.57,4.1,6.78H112.85z"/>
			<path class="st2" d="M131.15,8.49c0.38,0,0.82,0.02,1.32,0.07c0.49,0.05,0.98,0.11,1.46,0.19c0.48,0.08,0.92,0.16,1.32,0.24
				c0.4,0.08,0.69,0.15,0.89,0.22l-0.77,3.88c-0.35-0.13-0.93-0.28-1.75-0.46c-0.81-0.18-1.86-0.26-3.14-0.26
				c-0.83,0-1.65,0.09-2.47,0.26c-0.81,0.18-1.35,0.3-1.6,0.36v20.93h-4.46V10.08c1.05-0.38,2.36-0.74,3.93-1.08
				C127.45,8.66,129.21,8.49,131.15,8.49z"/>
			<path class="st2" d="M144.42,33.93h-4.46V9.02h4.46V33.93z"/>
			<path class="st2" d="M157.4,30.15c1.82,0,3.17-0.24,4.05-0.72c0.88-0.48,1.32-1.25,1.32-2.3c0-1.09-0.43-1.95-1.29-2.59
				c-0.86-0.64-2.28-1.36-4.26-2.16c-0.96-0.38-1.88-0.77-2.75-1.17c-0.88-0.4-1.64-0.87-2.28-1.41c-0.64-0.54-1.15-1.2-1.53-1.96
				c-0.38-0.77-0.57-1.71-0.57-2.83c0-2.2,0.81-3.95,2.44-5.25c1.63-1.29,3.85-1.94,6.66-1.94c0.7,0,1.4,0.04,2.11,0.12
				c0.7,0.08,1.36,0.18,1.96,0.29c0.61,0.11,1.14,0.23,1.6,0.36c0.46,0.13,0.82,0.24,1.08,0.34l-0.81,3.83
				c-0.48-0.26-1.23-0.52-2.25-0.79c-1.02-0.27-2.25-0.41-3.69-0.41c-1.25,0-2.33,0.25-3.26,0.74c-0.93,0.5-1.39,1.27-1.39,2.32
				c0,0.54,0.1,1.02,0.31,1.44c0.21,0.42,0.53,0.79,0.96,1.13c0.43,0.34,0.97,0.65,1.6,0.93c0.64,0.29,1.4,0.59,2.3,0.91
				c1.18,0.45,2.24,0.89,3.16,1.32c0.93,0.43,1.72,0.93,2.37,1.51c0.65,0.57,1.16,1.27,1.51,2.08c0.35,0.81,0.53,1.81,0.53,2.99
				c0,2.3-0.85,4.04-2.56,5.22c-1.71,1.18-4.14,1.77-7.31,1.77c-2.2,0-3.93-0.18-5.17-0.55c-1.25-0.37-2.09-0.65-2.54-0.84
				l0.81-3.83c0.51,0.19,1.32,0.48,2.44,0.86C154.07,29.96,155.55,30.15,157.4,30.15z"/>
			<path class="st2" d="M171.1,20.95c0-2.2,0.32-4.13,0.96-5.77c0.64-1.64,1.48-3.01,2.54-4.1c1.05-1.09,2.27-1.9,3.64-2.44
				c1.37-0.54,2.78-0.81,4.22-0.81c3.35,0,5.92,1.05,7.71,3.14c1.79,2.09,2.68,5.28,2.68,9.56c0,0.19,0,0.44,0,0.74
				c0,0.3-0.02,0.58-0.05,0.84h-17.05c0.19,2.59,0.94,4.55,2.25,5.89c1.31,1.34,3.35,2.01,6.13,2.01c1.56,0,2.88-0.14,3.95-0.41
				c1.07-0.27,1.88-0.53,2.42-0.79l0.62,3.74c-0.54,0.29-1.49,0.59-2.85,0.91c-1.36,0.32-2.9,0.48-4.62,0.48
				c-2.17,0-4.05-0.33-5.63-0.98c-1.58-0.65-2.88-1.56-3.9-2.71c-1.02-1.15-1.78-2.51-2.28-4.1
				C171.35,24.57,171.1,22.83,171.1,20.95z M188.21,18.51c0.03-2.01-0.47-3.66-1.51-4.96c-1.04-1.29-2.47-1.94-4.29-1.94
				c-1.02,0-1.92,0.2-2.71,0.6c-0.78,0.4-1.45,0.92-1.99,1.56c-0.54,0.64-0.97,1.37-1.27,2.2c-0.3,0.83-0.5,1.68-0.6,2.54H188.21z"
				/>
			<path class="st2" d="M197.18,10.73c-0.03-0.07-0.07-0.17-0.12-0.28c-0.05-0.11-0.11-0.24-0.16-0.37
				c-0.06-0.13-0.12-0.27-0.19-0.41c-0.07-0.14-0.13-0.27-0.19-0.4c-0.06-0.12-0.11-0.24-0.16-0.34c-0.05-0.1-0.09-0.17-0.12-0.23
				c-0.03,0.36-0.06,0.76-0.08,1.18c-0.02,0.42-0.04,0.85-0.06,1.28h-0.44c0.01-0.28,0.03-0.56,0.04-0.84
				c0.02-0.28,0.03-0.56,0.05-0.83c0.02-0.27,0.04-0.54,0.06-0.8c0.02-0.26,0.05-0.5,0.08-0.73h0.39c0.08,0.14,0.17,0.3,0.27,0.48
				c0.1,0.18,0.19,0.38,0.29,0.58c0.1,0.2,0.19,0.4,0.28,0.61c0.09,0.2,0.17,0.39,0.25,0.55c0.07-0.17,0.16-0.35,0.24-0.55
				c0.09-0.2,0.18-0.4,0.28-0.61c0.1-0.2,0.19-0.4,0.29-0.58c0.1-0.18,0.18-0.35,0.27-0.48h0.39c0.1,1.03,0.18,2.1,0.24,3.2h-0.44
				c-0.02-0.43-0.03-0.86-0.06-1.28c-0.02-0.42-0.05-0.82-0.08-1.18c-0.03,0.05-0.07,0.13-0.12,0.23c-0.05,0.1-0.11,0.21-0.16,0.34
				c-0.06,0.12-0.12,0.26-0.19,0.4c-0.07,0.14-0.13,0.28-0.19,0.41c-0.06,0.13-0.11,0.26-0.16,0.37c-0.05,0.11-0.09,0.21-0.12,0.28
				H197.18z"/>
			<path class="st2" d="M195.32,7.89v0.39h-1.01v2.82h-0.45V8.28h-1.01V7.89H195.32z"/>
		</g>
	</g>
</g>
</svg>
