<?xml version="1.0" encoding="UTF-8"?> <!-- Generator: Adobe Illustrator 23.1.0, SVG Export Plug-In . SVG Version: 6.00 Build 0) --> <svg xmlns="http://www.w3.org/2000/svg" xmlns:xlink="http://www.w3.org/1999/xlink" version="1.1" id="Lager_1" x="0px" y="0px" viewBox="0 0 436.3 129.4" style="enable-background:new 0 0 436.3 129.4;" xml:space="preserve"> <style type="text/css"> .st0{fill:#0099CC;} </style> <g> <path class="st0" d="M194,43.2c0,2-0.3,3.9-1,5.8c-0.7,1.9-1.8,3.7-3.4,5.2c-1.6,1.5-3.7,2.8-6.2,3.7c-2.6,1-5.8,1.4-9.7,1.4 c-2.9,0-5.5-0.1-7.6-0.4c-2.2-0.3-4.2-0.6-6-1c-0.4-0.1-0.8-0.3-1-0.5c-0.3-0.3-0.4-0.6-0.4-1v-5.6c0-0.4,0.1-0.8,0.4-1 c0.3-0.3,0.6-0.4,1-0.4h0.2c0.8,0.1,1.8,0.2,3,0.3c1.3,0.1,2.6,0.2,3.9,0.2c1.3,0.1,2.6,0.1,3.8,0.2c1.2,0.1,2.2,0.1,2.9,0.1 c3.4,0,5.8-0.6,7.1-1.8s1.9-2.9,1.9-5.2c0-0.8-0.1-1.5-0.3-2c-0.2-0.6-0.6-1.2-1-1.7c-0.5-0.6-1.2-1.1-2-1.7 c-0.8-0.6-1.9-1.3-3.2-2L166,29.5c-1.8-1.1-3.3-2.2-4.4-3.2c-1.2-1.1-2.1-2.2-2.8-3.4c-0.7-1.2-1.2-2.4-1.5-3.6 c-0.3-1.3-0.4-2.6-0.4-3.9c0-2.1,0.3-4.1,1-5.9s1.8-3.4,3.3-4.7s3.5-2.3,5.9-3s5.5-1.1,9.1-1.1c1.3,0,2.6,0,4.1,0.1 c1.4,0.1,2.9,0.2,4.2,0.3c1.4,0.2,2.6,0.3,3.8,0.5c1.1,0.2,2,0.3,2.7,0.5c0.4,0.1,0.7,0.3,1,0.5s0.4,0.6,0.4,1v5.7 c0,0.4-0.1,0.7-0.3,1s-0.6,0.4-1,0.4H191c-2.6-0.3-5.1-0.4-7.6-0.6c-2.5-0.1-5-0.2-7.6-0.2c-2.9,0-5,0.5-6.2,1.4 c-1.3,1-1.9,2.3-1.9,4.1c0,0.6,0.1,1.2,0.3,1.7s0.5,1.1,1,1.6s1.1,1.1,2,1.6c0.8,0.5,1.9,1.2,3.1,1.9l9.3,5.2 c2.1,1.2,3.9,2.4,5.2,3.6c1.4,1.2,2.5,2.5,3.3,3.7c0.8,1.3,1.4,2.6,1.7,4C193.8,40.2,194,41.6,194,43.2z"></path> <path class="st0" d="M235,57.8c-0.2,0.2-0.6,0.4-1.2,0.5c-0.6,0.1-1.3,0.2-2,0.3s-1.7,0.2-2.8,0.3s-2.4,0.2-4,0.3s-3.5,0.1-5.8,0.1 c-2.5,0-4.9-0.2-7-0.6c-2.2-0.4-4.1-1.2-5.7-2.4c-1.6-1.2-2.9-2.8-3.8-4.8c-0.9-2.1-1.4-4.7-1.4-8v-27c0-3.3,0.5-6,1.4-8 c0.9-2.1,2.2-3.7,3.8-4.8c1.6-1.2,3.5-1.9,5.7-2.4c2.2-0.4,4.5-0.6,7-0.6c2.3,0,4.3,0,5.8,0.1c1.6,0.1,2.9,0.2,4,0.3s2,0.2,2.8,0.3 c0.7,0.1,1.4,0.2,2,0.3s1,0.3,1.2,0.5s0.3,0.6,0.3,1.2v4.9c0,0.4-0.2,0.8-0.5,1.1s-0.7,0.5-1.1,0.5H218c-2.3,0-3.8,0.5-4.7,1.4 s-1.4,2.7-1.4,5.2v8.3h20.9c0.4,0,0.8,0.2,1.1,0.5s0.5,0.7,0.5,1.1V32c0,0.4-0.2,0.8-0.5,1.1s-0.7,0.5-1.1,0.5h-20.9v10 c0,2.6,0.4,4.3,1.4,5.2c0.9,0.9,2.5,1.4,4.7,1.4h15.7c0.4,0,0.8,0.2,1.1,0.5s0.5,0.7,0.5,1.1v4.9C235.3,57.2,235.2,57.6,235,57.8z"></path> <path class="st0" d="M284.6,57.8c0,0.6-0.3,0.9-0.9,0.9h-9.4c-0.4,0-0.7-0.2-0.9-0.5c-0.2-0.3-0.4-0.7-0.6-1.1l-11.1-20.5h-1.1 c-1,0-2.2,0-3.5-0.1c-1.3-0.1-2.4-0.1-3.3-0.2v20.8c0,0.4-0.1,0.8-0.4,1.1c-0.3,0.3-0.6,0.5-1,0.5h-7.7c-0.4,0-0.8-0.2-1.1-0.5 s-0.5-0.7-0.5-1.1V4c0-0.8,0.2-1.3,0.7-1.7c0.4-0.3,1-0.6,1.8-0.7c2-0.3,4.3-0.6,6.9-0.7c2.6-0.2,5.3-0.3,8.2-0.3 c3,0,5.8,0.3,8.5,0.9s5,1.6,7.1,2.9c2,1.3,3.7,3.1,4.9,5.4c1.2,2.2,1.8,5,1.8,8.3v0.7c0,4.1-0.9,7.5-2.8,10 c-1.9,2.6-4.4,4.5-7.7,5.7L284.6,57C284.5,57.3,284.6,57.5,284.6,57.8z M272.1,18.2c0-2.9-1-5-2.9-6.3s-4.8-1.9-8.6-1.9 c-0.4,0-0.9,0-1.6,0c-0.6,0-1.3,0.1-2,0.1s-1.3,0.1-1.9,0.1c-0.6,0-1.1,0.1-1.4,0.1v17.4c0.3,0,0.8,0,1.4,0c0.6,0,1.3,0.1,2,0.1 s1.4,0.1,2,0.1s1.1,0,1.4,0c4,0,6.9-0.6,8.8-1.9c1.8-1.3,2.8-3.6,2.8-7L272.1,18.2L272.1,18.2z"></path> <path class="st0" d="M334.2,2.7c0,0.1,0,0.2,0,0.2s0,0.1,0,0.2l-12.7,48.4c-0.5,1.8-1.1,3.2-2,4.2s-1.8,1.8-2.8,2.4 c-1,0.5-2,0.9-3.1,1c-1.1,0.2-2,0.2-2.8,0.2s-1.8-0.1-2.8-0.2c-1.1-0.2-2.1-0.5-3.1-1s-1.9-1.3-2.8-2.4c-0.9-1-1.5-2.4-2-4.2 L287.3,3c0-0.1,0-0.2,0-0.2s0-0.1,0-0.2c0-0.4,0.1-0.7,0.4-1c0.3-0.2,0.6-0.3,1-0.3h8.2c0.4,0,0.7,0.1,0.9,0.4 c0.3,0.3,0.4,0.6,0.5,0.9L309.5,49c0.1,0.5,0.2,0.8,0.4,1c0.2,0.2,0.4,0.3,0.8,0.3s0.7-0.1,0.8-0.3c0.2-0.2,0.3-0.5,0.4-1 l11.2-46.4c0.1-0.4,0.3-0.7,0.5-0.9c0.3-0.3,0.6-0.4,0.9-0.4h8.2c0.4,0,0.7,0.1,1,0.3C334.1,1.9,334.2,2.2,334.2,2.7z"></path> <path class="st0" d="M350.9,58.2c-0.3,0.3-0.7,0.5-1.1,0.5h-7.6c-0.4,0-0.8-0.2-1.1-0.5c-0.3-0.3-0.5-0.7-0.5-1.1V2.8 c0-0.4,0.2-0.8,0.5-1c0.3-0.3,0.7-0.4,1.1-0.4h7.6c0.4,0,0.8,0.1,1.1,0.4c0.3,0.3,0.5,0.6,0.5,1v54.3 C351.4,57.6,351.2,57.9,350.9,58.2z"></path> <path class="st0" d="M394.8,57.5c-0.3,0.2-0.7,0.4-1.2,0.6c-0.3,0.1-0.8,0.2-1.6,0.3c-0.7,0.2-1.7,0.3-2.7,0.4 c-1.1,0.1-2.3,0.2-3.6,0.3c-1.3,0.1-2.8,0.2-4.2,0.2c-2.3,0-4.8-0.3-7.3-1c-2.6-0.7-4.9-1.9-7-3.7s-3.9-4.2-5.3-7.2 s-2.1-6.9-2.1-11.7V24.3c0-4.8,0.7-8.8,2.1-11.8c1.4-3.1,3.2-5.5,5.3-7.2c2.1-1.7,4.5-2.9,7-3.6c2.6-0.6,5-1,7.3-1 c1.5,0,2.9,0.1,4.2,0.2c1.3,0.1,2.5,0.2,3.6,0.3s2,0.3,2.7,0.4s1.3,0.2,1.6,0.3c0.5,0.2,0.9,0.3,1.2,0.6c0.3,0.2,0.5,0.6,0.5,1.2 v5.2c0,0.5-0.1,0.8-0.3,1.2c-0.2,0.3-0.6,0.5-1.2,0.5h-0.2c-0.7-0.1-1.5-0.1-2.4-0.2c-1-0.1-2-0.1-3-0.2c-1.2-0.1-2.3-0.2-3.5-0.2 c-1.1-0.1-2.2-0.1-3.2-0.1c-1.6,0-3.1,0.2-4.5,0.7s-2.6,1.3-3.5,2.4c-1,1.1-1.7,2.6-2.3,4.5c-0.6,1.9-0.8,4.1-0.8,6.9v11.3 c0,2.7,0.3,4.9,0.8,6.8c0.6,1.9,1.3,3.3,2.3,4.5c1,1.1,2.2,1.9,3.5,2.4c1.4,0.5,2.9,0.7,4.5,0.7c1,0,2.1,0,3.2-0.1s2.2-0.1,3.3-0.2 c1.1-0.1,2.1-0.1,3-0.2c1-0.1,1.8-0.1,2.4-0.2h0.2c0.6,0,1,0.2,1.2,0.5s0.3,0.7,0.3,1.2v5.2C395.2,56.9,395.1,57.3,394.8,57.5z"></path> <path class="st0" d="M435.9,57.8c-0.2,0.2-0.6,0.4-1.2,0.5s-1.3,0.2-2,0.3s-1.7,0.2-2.8,0.3c-1.1,0.1-2.4,0.2-4,0.3 s-3.5,0.1-5.8,0.1c-2.5,0-4.9-0.2-7-0.6c-2.2-0.4-4.1-1.2-5.7-2.4s-2.9-2.8-3.8-4.8c-0.9-2.1-1.4-4.7-1.4-8v-27c0-3.3,0.5-6,1.4-8 c0.9-2.1,2.2-3.7,3.8-4.8c1.6-1.2,3.5-1.9,5.7-2.4c2.2-0.4,4.5-0.6,7-0.6c2.3,0,4.3,0,5.8,0.1c1.6,0.1,2.9,0.2,4,0.3s2,0.2,2.8,0.3 c0.7,0.1,1.4,0.2,2,0.3s1,0.3,1.2,0.5s0.3,0.6,0.3,1.2v4.9c0,0.4-0.2,0.8-0.5,1.1s-0.7,0.5-1.1,0.5H419c-2.3,0-3.8,0.5-4.7,1.4 c-0.9,0.9-1.4,2.7-1.4,5.2v8.3h20.9c0.4,0,0.8,0.2,1.1,0.5c0.3,0.3,0.5,0.7,0.5,1.1V32c0,0.4-0.2,0.8-0.5,1.1s-0.7,0.5-1.1,0.5 h-20.9v10c0,2.6,0.4,4.3,1.4,5.2c0.9,0.9,2.5,1.4,4.7,1.4h15.7c0.4,0,0.8,0.2,1.1,0.5c0.3,0.3,0.5,0.7,0.5,1.1v4.9 C436.3,57.2,436.2,57.6,435.9,57.8z"></path> <path class="st0" d="M201.7,129c-0.6,0.6-1.3,0.9-2.2,0.9h-7.8c-0.9,0-1.8-0.1-2.6-0.3s-1.5-1-2.1-2.4l-17.1-37.6 c-0.2-0.4-0.4-0.6-0.7-0.6s-0.4,0.2-0.4,0.6v38.8c0,0.4-0.1,0.8-0.4,1.1c-0.3,0.3-0.6,0.5-1,0.5h-6.6c-0.4,0-0.8-0.2-1.1-0.5 s-0.5-0.7-0.5-1.1V75.7c0-0.9,0.3-1.6,0.9-2.2c0.6-0.6,1.3-0.9,2.2-0.9h8.3c0.8,0,1.5,0.2,2,0.5s1,1,1.4,2l18,39.7 c0.2,0.4,0.4,0.6,0.6,0.6c0.3,0,0.4-0.2,0.4-0.7V74c0-1,0.5-1.5,1.5-1.5h6.6c1,0,1.5,0.5,1.5,1.5v52.8 C202.6,127.7,202.3,128.4,201.7,129z"></path> <path class="st0" d="M253.1,117.4c-1.1,3.1-2.6,5.6-4.6,7.5s-4.3,3.4-6.9,4.3c-2.7,0.9-5.6,1.4-8.8,1.4s-6.1-0.5-8.8-1.4 c-2.7-0.9-5-2.4-6.9-4.3c-2-1.9-3.5-4.4-4.6-7.5s-1.7-6.7-1.7-10.9V96c0-4.3,0.6-7.9,1.7-11c1.1-3,2.6-5.5,4.6-7.4s4.3-3.4,6.9-4.3 c2.7-0.9,5.6-1.4,8.8-1.4s6.1,0.5,8.8,1.4s5,2.4,6.9,4.3c2,1.9,3.5,4.4,4.6,7.4s1.7,6.7,1.7,11v10.4 C254.8,110.7,254.2,114.3,253.1,117.4z M244,96c0-5.1-0.9-8.9-2.8-11.2c-1.8-2.3-4.7-3.5-8.5-3.5s-6.7,1.2-8.5,3.5 s-2.8,6.1-2.8,11.2v10.4c0,5.1,0.9,8.9,2.8,11.2c1.8,2.3,4.7,3.5,8.5,3.5s6.7-1.2,8.5-3.5s2.8-6.1,2.8-11.2V96z"></path> <path class="st0" d="M298.1,124.5c-4.2,4-10.2,6.1-17.9,6.1c-1.4,0-2.8,0-4.4-0.1c-1.5-0.1-3-0.1-4.4-0.2c-1.4-0.1-2.7-0.2-3.9-0.3 c-1.2-0.1-2-0.2-2.6-0.3c-0.7-0.1-1.2-0.3-1.5-0.7c-0.3-0.4-0.5-0.9-0.5-1.7v-52c0-0.8,0.2-1.3,0.5-1.7c0.3-0.4,0.8-0.6,1.5-0.7 c0.6-0.1,1.4-0.2,2.6-0.3c1.2-0.1,2.4-0.2,3.9-0.3c1.4-0.1,2.9-0.2,4.4-0.2c1.5-0.1,3-0.1,4.4-0.1c7.8,0,13.7,2,17.9,6.1 c4.2,4,6.3,9.9,6.3,17.6V107C304.4,114.6,302.3,120.4,298.1,124.5z M293.6,95.6c0-2.9-0.3-5.3-1-7.2c-0.7-1.9-1.6-3.4-2.8-4.5 c-1.2-1.1-2.6-1.9-4.3-2.3c-1.6-0.4-3.4-0.7-5.4-0.7c-1.4,0-2.7,0-3.7,0.1s-1.9,0.1-2.8,0.2v40.1c0.8,0.1,1.7,0.1,2.8,0.2 c1,0.1,2.3,0.1,3.7,0.1c1.9,0,3.7-0.2,5.4-0.7c1.6-0.4,3.1-1.2,4.3-2.3c1.2-1.1,2.2-2.6,2.8-4.5c0.7-1.9,1-4.3,1-7.2V95.6z"></path> <path class="st0" d="M346.1,129c-0.2,0.2-0.6,0.4-1.2,0.5s-1.3,0.2-2,0.3s-1.7,0.2-2.8,0.3c-1.1,0.1-2.4,0.2-4,0.3 s-3.5,0.1-5.8,0.1c-2.5,0-4.9-0.2-7-0.6c-2.2-0.4-4.1-1.2-5.7-2.4c-1.6-1.2-2.9-2.8-3.8-4.8c-0.9-2.1-1.4-4.7-1.4-8V87.8 c0-3.3,0.5-6,1.4-8c0.9-2.1,2.2-3.7,3.8-4.8c1.6-1.2,3.5-1.9,5.7-2.4c2.2-0.4,4.5-0.6,7-0.6c2.3,0,4.3,0,5.8,0.1 c1.6,0.1,2.9,0.2,4,0.3c1.1,0.1,2,0.2,2.8,0.3c0.7,0.1,1.4,0.2,2,0.3c0.6,0.1,1,0.3,1.2,0.5s0.3,0.6,0.3,1.2v4.9 c0,0.4-0.2,0.8-0.5,1.1s-0.7,0.5-1.1,0.5h-15.7c-2.3,0-3.8,0.5-4.7,1.4c-0.9,0.9-1.4,2.7-1.4,5.2v8.3h21c0.4,0,0.8,0.2,1.1,0.5 c0.3,0.3,0.5,0.7,0.5,1.1v5.6c0,0.4-0.2,0.8-0.5,1.1c-0.3,0.3-0.7,0.5-1.1,0.5h-20.9v10c0,2.6,0.4,4.3,1.4,5.2 c0.9,0.9,2.5,1.4,4.7,1.4h15.7c0.4,0,0.8,0.2,1.1,0.5s0.5,0.7,0.5,1.1v4.9C346.4,128.4,346.3,128.8,346.1,129z"></path> <path class="st0" d="M378.4,84.4c0,1.7-0.3,3.3-1,4.8c-0.6,1.5-1.5,2.8-2.7,3.9c-1.1,1.1-2.4,2-4,2.7c-1.5,0.6-3.1,1-4.8,1 c-1.7,0-3.3-0.3-4.8-1c-1.5-0.6-2.8-1.5-3.9-2.7c-1.1-1.1-2-2.4-2.7-3.9c-0.6-1.5-1-3.1-1-4.8c0-1.7,0.3-3.3,1-4.8 c0.6-1.5,1.5-2.8,2.7-3.9c1.1-1.1,2.4-2,3.9-2.7c1.5-0.6,3.1-1,4.8-1c1.7,0,3.3,0.3,4.8,1c1.5,0.6,2.8,1.5,4,2.7 c1.1,1.1,2,2.4,2.7,3.9S378.4,82.7,378.4,84.4z M376.3,84.4c0-1.4-0.3-2.7-0.8-4s-1.3-2.4-2.2-3.3c-0.9-0.9-2-1.7-3.3-2.2 s-2.6-0.8-4-0.8s-2.7,0.3-4,0.8c-1.2,0.5-2.3,1.3-3.3,2.2c-0.9,0.9-1.7,2-2.2,3.3s-0.8,2.6-0.8,4s0.3,2.7,0.8,4 c0.5,1.2,1.3,2.3,2.2,3.3c0.9,0.9,2,1.7,3.3,2.2c1.2,0.5,2.6,0.8,4,0.8s2.7-0.3,4-0.8s2.4-1.3,3.3-2.2c0.9-0.9,1.7-2,2.2-3.3 C376,87.2,376.3,85.8,376.3,84.4z M372,91.4c0,0.1,0,0.2-0.1,0.3c-0.1,0.1-0.2,0.2-0.4,0.2h-2.3c-0.2,0-0.4-0.1-0.5-0.4l-3.1-5.3 c0-0.1-0.1-0.1-0.2-0.2c-0.1,0-0.2-0.1-0.2-0.1h-0.9h-0.5v5.3c0,0.2-0.1,0.3-0.2,0.4s-0.2,0.2-0.4,0.2h-2.1c-0.2,0-0.3-0.1-0.4-0.2 s-0.2-0.3-0.2-0.4V77.9c0-0.4,0.1-0.7,0.2-0.9c0.2-0.2,0.4-0.3,0.8-0.3c0.2,0,0.4-0.1,0.7-0.1c0.3,0,0.6,0,1,0s0.7,0,1.1,0 s0.7,0,1,0c1.9,0,3.4,0.3,4.5,1s1.6,1.9,1.6,3.7v0.3c0,1.1-0.3,2-0.8,2.6s-1.2,1.1-2,1.4l3.2,5.5C371.9,91.1,372,91.2,372,91.4z M368.4,81.2c0-0.8-0.2-1.3-0.7-1.6c-0.5-0.3-1.2-0.5-2.2-0.5h-1.4h-0.5v4.3c0.1,0,0.2,0,0.4,0c0.2,0,0.4,0,0.6,0s0.4,0,0.6,0 s0.3,0,0.4,0c1,0,1.8-0.2,2.2-0.5c0.4-0.3,0.7-0.9,0.7-1.6v-0.1H368.4z"></path> </g> <g> <path class="st0" d="M126.7,0.2h-23.9c-5.7,5-43.6,36.3-45.2,37.7c-1.7,1.5-3.4,3-5.2,4.6c-1.7,1.6-3.3,3-4.6,4.4 c-2.2,2.2-3.4,4.1-3.7,5.7c-0.2,1.6,0.3,3.1,1.7,4.5c1.1,1.1,2.3,1.6,3.7,1.6s3.7-0.5,6.9-1.4l15.3-4.6c6.2-1.9,11.3-2.2,15.4-1.1 c4.1,1.1,7.7,3.2,10.8,6.4c2.1,2.1,3.7,4.5,5,7.2c1.3,2.7,1.9,5.7,1.8,9s-1,6.8-2.6,10.5c-1.7,3.7-4.5,7.3-8.4,11.3 c-2,2-24.2,20.2-39.7,33.2h72.6c1.7,0,3.3-1.1,3.3-2.7V3.3C130,1.6,128.3,0.2,126.7,0.2z"></path> <path class="st0" d="M79.2,87.4c1.4-1.2,2.5-2.2,3.3-2.9c2.7-2.7,4.1-4.9,4.1-6.7c0.1-1.8-0.8-3.7-2.7-5.5c-1.1-1.1-2.5-1.7-4-1.9 c-1.5-0.1-3.8,0.3-7.1,1.1l-17,4.3c-2.9,0.7-5.5,1.1-7.8,1.1s-4.4-0.2-6.4-0.8c-1.9-0.5-3.7-1.3-5.3-2.4c-1.6-1-3.1-2.2-4.5-3.6 c-2.1-2.1-3.8-4.4-5-6.9s-1.7-5.2-1.5-8.1c0.2-2.9,1.2-6,2.9-9.3c1.8-3.3,4.5-6.8,8.3-10.6c1.4-1.4,3-2.9,4.7-4.4 c1.7-1.5,3.4-3,5.1-4.3C47.4,25.6,65,11.2,78.2,0.2H3.5C1.8,0.2,0,1.6,0,3.3v123.2c0,1.7,1.8,2.7,3.5,2.7h25.3 C31.3,127.2,77.8,88.7,79.2,87.4z"></path> </g> </svg> 